# xmcd
#
# Track frame offsets: 
#        150
#        13542
#        27729
#        41263
#        55031
#        67615
#        81832
#        94516
#        106469
#        119490
#        131996
#        146851
#        158901
#        172680
#        187155
#        201496
#        213410
#        225196
#        238512
#        253706
#
# Disc length: 3557 seconds
#
# Revision: 0
# Processed by: cddbd v1.4PL0 Copyright (c) Steve Scherf et al.
# Submitted via: ExactAudioCopy v0.95a3
#
DISCID=120de314
DTITLE=Various Artist - Nothin. But The Blues CD3
DYEAR=1998
DGENRE=Blues
TTITLE0=Sonny Boy Williamson - Good Morning Little School
TTITLE1=Kokomo Arnold - Milk Cow Blues
TTITLE2=Robert Johnson/Terraplane Blues
TTITLE3=Mississippi Sheiks/Sitting on Top of the World
TTITLE4=Bukka White/Fixing to Die Blues
TTITLE5=Memphis Minnie/When the Levee Breaks
TTITLE6=Robert Petway/Catfish Blues
TTITLE7=Big Jo Williams/Baby Please Don't Go
TTITLE8=Sipple Wallace/I'm A Mighty Tight Woman
TTITLE9=Walter Davis/Sweet Sixteen
TTITLE10=Sleepy John Estees/Broken Hearted and Dirty Too
TTITLE11=Sonny Boy Williamson/New Early in the Morning
TTITLE12=Muddy Waters/I Bes Trouble
TTITLE13=Dr Clayton/Cheatin' and Lying Blues
TTITLE14=Big Joe Williams/Highway 49
TTITLE15=Ida Cox/Chicago Bound Blues
TTITLE16=Leadbelly/Fannin' Street
TTITLE17=Kid Bailey/Rowdy Man Blues
TTITLE18=Bessie Smith/Careless Love Blues
TTITLE19=Johnny Temple/Louise Louise Blues
EXTD=
EXTT0=
EXTT1=
EXTT2=
EXTT3=
EXTT4=
EXTT5=
EXTT6=
EXTT7=
EXTT8=
EXTT9=
EXTT10=
EXTT11=
EXTT12=
EXTT13=
EXTT14=
EXTT15=
EXTT16=
EXTT17=
EXTT18=
EXTT19=
PLAYORDER=
